<?xml version="1.0" encoding="UTF-8" standalone="no"?>
<svg
   xmlns:osb="http://www.openswatchbook.org/uri/2009/osb"
   xmlns:dc="http://purl.org/dc/elements/1.1/"
   xmlns:cc="http://creativecommons.org/ns#"
   xmlns:rdf="http://www.w3.org/1999/02/22-rdf-syntax-ns#"
   xmlns:svg="http://www.w3.org/2000/svg"
   xmlns="http://www.w3.org/2000/svg"
   xmlns:sodipodi="http://sodipodi.sourceforge.net/DTD/sodipodi-0.dtd"
   xmlns:inkscape="http://www.inkscape.org/namespaces/inkscape"
   sodipodi:docname="logo.svg"
   inkscape:version="1.0 (4035a4fb49, 2020-05-01)"
   id="svg8"
   version="1.1"
   viewBox="0 0 144.75887 144.75887"
   height="144.75887mm"
   width="144.75887mm">
  <defs
     id="defs2">
    <linearGradient
       osb:paint="solid"
       id="linearGradient3248">
      <stop
         id="stop3246"
         offset="0"
         style="stop-color:#c2a16b;stop-opacity:1;" />
    </linearGradient>
    <linearGradient
       osb:paint="solid"
       id="linearGradient3240">
      <stop
         id="stop3238"
         offset="0"
         style="stop-color:#c2a16b;stop-opacity:1;" />
    </linearGradient>
    <linearGradient
       osb:paint="gradient"
       id="linearGradient1285"
       inkscape:collect="always">
      <stop
         id="stop1281"
         offset="0"
         style="stop-color:#c2a16b;stop-opacity:1;" />
      <stop
         id="stop1283"
         offset="1"
         style="stop-color:#c2a16b;stop-opacity:0;" />
    </linearGradient>
    <rect
       id="rect1174"
       height="90.903275"
       width="46.963543"
       y="110.65253"
       x="274.03275" />
    <rect
       id="rect1042"
       height="35.279579"
       width="120.93946"
       y="74.300926"
       x="404.24515" />
    <rect
       id="rect934"
       height="138.33929"
       width="153.36385"
       y="70.587051"
       x="251.73215" />
    <rect
       id="rect870"
       height="36.474701"
       width="119.44048"
       y="84.288689"
       x="299.9241" />
    <rect
       id="rect941"
       height="37.419643"
       width="95.061012"
       y="105.64435"
       x="100.16369" />
    <rect
       id="rect935"
       height="104.32143"
       width="155.34821"
       y="50.270832"
       x="60.098213" />
    <rect
       id="rect927"
       height="87.501488"
       width="88.824402"
       y="93.171127"
       x="92.98214" />
    <rect
       x="299.9241"
       y="84.288689"
       width="119.44048"
       height="36.474701"
       id="rect870-5" />
    <rect
       x="299.9241"
       y="84.288689"
       width="119.44048"
       height="36.474701"
       id="rect883" />
    <rect
       x="299.9241"
       y="84.288689"
       width="119.44048"
       height="36.474701"
       id="rect870-8" />
    <rect
       x="299.9241"
       y="84.288689"
       width="119.44048"
       height="36.474701"
       id="rect912" />
    <rect
       x="274.03275"
       y="110.65253"
       width="46.963543"
       height="90.903275"
       id="rect1174-1" />
    <rect
       x="274.03275"
       y="110.65253"
       width="46.963543"
       height="90.903275"
       id="rect1187" />
    <filter
       height="1.0344539"
       y="-0.017226953"
       width="1.0344539"
       x="-0.017226953"
       id="filter4939"
       style="color-interpolation-filters:sRGB"
       inkscape:collect="always">
      <feGaussianBlur
         id="feGaussianBlur4941"
         stdDeviation="1.0016889"
         inkscape:collect="always" />
    </filter>
  </defs>
  <sodipodi:namedview
     inkscape:window-maximized="1"
     inkscape:window-y="-11"
     inkscape:window-x="2869"
     inkscape:window-height="2066"
     inkscape:window-width="3840"
     showgrid="false"
     inkscape:document-rotation="0"
     inkscape:current-layer="layer1"
     inkscape:document-units="mm"
     inkscape:cy="307.07542"
     inkscape:cx="180.7706"
     inkscape:zoom="0.98994949"
     inkscape:pageshadow="2"
     inkscape:pageopacity="0.0"
     borderopacity="1.0"
     bordercolor="#666666"
     pagecolor="#ffffff"
     id="base" />
  <metadata
     id="metadata5">
    <rdf:RDF>
      <cc:Work
         rdf:about="">
        <dc:format>image/svg+xml</dc:format>
        <dc:type
           rdf:resource="http://purl.org/dc/dcmitype/StillImage" />
        <dc:title></dc:title>
      </cc:Work>
    </rdf:RDF>
  </metadata>
  <g
     transform="translate(-34.148316,-63.408516)"
     id="layer1"
     inkscape:groupmode="layer"
     inkscape:label="Layer 1">
    <circle
       inkscape:export-ydpi="22.459419"
       inkscape:export-xdpi="22.459419"
       r="69.775932"
       cx="106.52775"
       cy="135.78795"
       style="fill:#53585f;fill-opacity:1;stroke:none;stroke-width:5.207;stroke-miterlimit:4;stroke-dasharray:none;stroke-opacity:1"
       id="path868" />
    <text
       style="font-style:normal;font-weight:normal;font-size:10.5833px;line-height:1.25;font-family:sans-serif;white-space:pre;shape-inside:url(#rect934);fill:#000000;fill-opacity:1;stroke:none;"
       id="text932"
       xml:space="preserve" />
    <text
       id="text969"
       y="88.867119"
       x="350.25671"
       style="font-style:normal;font-weight:normal;font-size:10.5833px;line-height:1.25;font-family:sans-serif;fill:#000000;fill-opacity:1;stroke:none;stroke-width:0.264583"
       xml:space="preserve"><tspan
         style="stroke-width:0.264583"
         y="88.867119"
         x="350.25671"
         id="tspan967"
         sodipodi:role="line" /></text>
    <circle
       inkscape:export-ydpi="22.459419"
       inkscape:export-xdpi="22.459419"
       r="51.83857"
       style="fill:#336ec1;fill-opacity:0;stroke:none;stroke-width:4.36591;stroke-miterlimit:4;stroke-dasharray:none;stroke-opacity:1"
       id="circle961"
       cx="72.411171"
       cy="156.7672"
       transform="matrix(-0.45581927,0.89007235,0.89007235,0.45581927,0,0)" />
    <text
       style="font-style:normal;font-weight:normal;font-size:10.5833px;line-height:1.25;font-family:sans-serif;white-space:pre;shape-inside:url(#rect1042);fill:#000000;fill-opacity:1;stroke:none;"
       id="text1040"
       xml:space="preserve" />
    <path
       inkscape:export-ydpi="22.459419"
       inkscape:export-xdpi="22.459419"
       id="path862-3"
       style="fill:#e8e8e8;fill-opacity:1;stroke:none;stroke-width:0.665001;stroke-miterlimit:4;stroke-dasharray:none;stroke-opacity:1"
       d="m 106.52154,131.27817 a 7.1815473,2.9293153 0 0 0 -7.175268,2.92953 7.1815473,2.9293153 0 0 0 2.107368,2.07274 5.2433323,2.9754759 0 0 0 5.07411,2.22571 5.2433323,2.9754759 0 0 0 5.07359,-2.22571 7.1815473,2.9293153 0 0 0 2.10788,-2.07274 7.1815473,2.9293153 0 0 0 -7.18147,-2.92953 7.1815473,2.9293153 0 0 0 -0.006,0 z" />
    <path
       inkscape:export-ydpi="22.459419"
       inkscape:export-xdpi="22.459419"
       sodipodi:nodetypes="csscscsc"
       d="m 124.42375,107.71165 c 1.07542,8.42104 0.99274,17.82212 -3.48558,22.30044 -6.7931,6.7931 -22.027358,6.7931 -28.820458,0 -4.47832,-4.47831 -4.56151,-13.87941 -3.4861,-22.30044 0,0 5.92042,-1.55917 8.94804,-1.55917 3.027618,0 8.948028,1.55917 8.948028,1.55917 0,0 5.90897,1.74813 8.94803,1.74813 3.03907,0 8.94804,-1.74813 8.94804,-1.74813 z"
       style="fill:#c48f00;fill-opacity:1;stroke:none;stroke-width:0.665001;stroke-miterlimit:4;stroke-dasharray:none;stroke-opacity:1"
       id="path881-1" />
    <path
       inkscape:export-ydpi="22.459419"
       inkscape:export-xdpi="22.459419"
       id="path875-6"
       style="fill:#f8b500;fill-opacity:1;stroke:none;stroke-width:0.665001;stroke-miterlimit:4;stroke-dasharray:none;stroke-opacity:1"
       d="m 88.631742,107.71164 c -1.07542,8.42105 -0.99274,17.82213 3.48558,22.30045 6.79309,6.7931 22.027358,6.7931 28.820458,0 4.47832,-4.47831 4.56151,-13.87941 3.4861,-22.30045 0,0 -5.92042,-1.55916 -8.94804,-1.55916 -3.02762,0 -8.94803,1.55916 -8.94803,1.55916 0,0 -5.90897,1.74814 -8.948028,1.74814 -3.03907,0 -8.94804,-1.74814 -8.94804,-1.74814 z"
       sodipodi:nodetypes="csscscsc" />
    <path
       inkscape:export-ydpi="22.459419"
       inkscape:export-xdpi="22.459419"
       id="rect853-0"
       style="fill:none;fill-opacity:1;stroke:#e8e8e8;stroke-width:1.465;stroke-miterlimit:4;stroke-dasharray:none;stroke-opacity:1"
       d="m 92.117402,91.269525 h 28.820688 c 0,0 9.13171,29.610855 0,38.742565 -6.79311,6.79311 -22.027588,6.79311 -28.820688,0 -9.13171,-9.13171 0,-38.742565 0,-38.742565 z"
       sodipodi:nodetypes="ccssc" />
    <path
       inkscape:export-ydpi="22.459419"
       inkscape:export-xdpi="22.459419"
       d="m 42.839402,164.29126 a 69.775932,69.775932 0 0 0 63.688088,41.27242 69.775932,69.775932 0 0 0 63.68862,-41.27242 z"
       style="fill:#927c5b;fill-opacity:0.998333;stroke:none;stroke-width:1.70666;stroke-miterlimit:4;stroke-dasharray:none;stroke-opacity:1"
       id="circle1209" />
    <rect
       inkscape:export-ydpi="22.459419"
       inkscape:export-xdpi="22.459419"
       style="fill:#e8e8e8;fill-opacity:1;stroke:none;stroke-width:0.665001;stroke-miterlimit:4;stroke-dasharray:none;stroke-opacity:1"
       id="rect869-5"
       width="3.2127976"
       height="41.010418"
       x="104.92136"
       y="136.8096" />
    <ellipse
       inkscape:export-ydpi="22.459419"
       inkscape:export-xdpi="22.459419"
       style="fill:#e8e8e8;fill-opacity:1;stroke:none;stroke-width:0.665001;stroke-miterlimit:4;stroke-dasharray:none;stroke-opacity:1"
       id="path871-4"
       cx="106.52775"
       cy="179.29073"
       rx="14.2686"
       ry="3.0710564" />
    <path
       inkscape:export-ydpi="22.459419"
       inkscape:export-xdpi="22.459419"
       d="m 130.93374,164.29126 a 4.4172901,1.7421218 32.272 0 0 0.12454,0.43357 3.3525647,1.7023032 25.321246 0 0 0.25684,1.84226 l -23.18565,9.45059 v 1.79627 l 0.0119,0.003 24.6693,-10.05571 a 3.3525647,1.7023032 25.321246 0 0 2.97088,0.73587 4.4172901,1.7421218 32.272 0 0 2.33111,0.23358 4.4172901,1.7421218 32.272 0 0 0.0724,-0.0331 c 0.39166,0.17389 0.79158,0.33804 1.19991,0.48885 0.2185,0.0807 0.43945,0.15799 0.66199,0.23151 0.22254,0.0735 0.4472,0.1428 0.67334,0.20878 1.13122,0.33001 2.30428,0.56375 3.48972,0.67644 0.15785,0.015 0.31739,0.027 0.47749,0.0362 0.0543,0.003 0.10928,0.004 0.16381,0.007 0.10641,0.005 0.21259,0.0104 0.31988,0.0129 0.10173,0.002 0.20442,0.002 0.30694,0.002 0.0616,6e-5 0.12264,5.3e-4 0.1845,5.3e-4 0.0895,-7.9e-4 0.1797,-0.005 0.26974,-0.007 0.0734,-0.002 0.14679,-0.003 0.22066,-0.006 0.0544,-0.002 0.10917,-0.006 0.16383,-0.009 0.11324,-0.006 0.22654,-0.0113 0.34055,-0.0196 0.0852,-0.006 0.17121,-0.0147 0.25683,-0.0222 0.0811,-0.007 0.16187,-0.0135 0.24339,-0.0217 0.10546,-0.0106 0.2118,-0.0231 0.31782,-0.0357 0.0643,-0.008 0.12832,-0.014 0.19274,-0.0222 0.0875,-0.0111 0.17566,-0.0244 0.26356,-0.0367 0.0815,-0.0115 0.16271,-0.0222 0.24442,-0.0346 0.10811,-0.0165 0.21651,-0.0349 0.32504,-0.0532 0.0511,-0.009 0.10229,-0.0158 0.15348,-0.0248 0.0114,-0.002 0.0225,-0.004 0.0336,-0.006 0.10345,-0.0183 0.2073,-0.0385 0.3111,-0.0584 0.0565,-0.0108 0.11292,-0.0202 0.16951,-0.0315 l 0.0403,-0.009 c 0.003,-7.9e-4 0.005,2e-4 0.005,-5.3e-4 0.0943,-0.0189 0.18963,-0.0393 0.28422,-0.0594 0.0766,-0.0163 0.15266,-0.0321 0.22944,-0.0491 0.10287,-0.0229 0.20641,-0.0475 0.30957,-0.0718 0.0732,-0.0172 0.14581,-0.0338 0.2191,-0.0517 0.10324,-0.0252 0.20664,-0.0521 0.31006,-0.0786 0.0673,-0.0171 0.13383,-0.034 0.20101,-0.0517 0.12443,-0.0328 0.24902,-0.0667 0.37362,-0.10128 0.048,-0.0133 0.0966,-0.0262 0.1447,-0.0398 0.14298,-0.0404 0.28628,-0.0824 0.42944,-0.12506 0.0241,-0.007 0.0472,-0.0142 0.0713,-0.0212 0.15221,-0.0457 0.30453,-0.0929 0.4568,-0.14107 0.0238,-0.007 0.0469,-0.0145 0.0703,-0.0222 0.16679,-0.0531 0.33401,-0.10751 0.50072,-0.16329 v -5.3e-4 c 1.1661,-0.39037 2.32683,-0.84646 3.4644,-1.33997 0.0521,-0.0229 0.10499,-0.0446 0.15762,-0.0672 0.0151,-0.006 0.0289,-0.0135 0.0439,-0.0196 0.2817,-0.12374 0.56107,-0.24984 0.83923,-0.37776 0.0568,-0.0259 0.11374,-0.0516 0.17002,-0.078 0.29282,-0.13581 0.58277,-0.27344 0.87074,-0.41289 0.0362,-0.0175 0.0726,-0.0349 0.10851,-0.0527 0.31803,-0.15483 0.6322,-0.31122 0.94311,-0.46922 0.003,-7.9e-4 0.006,-0.002 0.006,-0.004 1.21632,-0.61822 2.36906,-1.25455 3.43752,-1.8743 z"
       style="opacity:0.139785;fill:#000000;fill-opacity:1;stroke:none;stroke-width:0.402204;stroke-miterlimit:4;stroke-dasharray:none;stroke-opacity:1"
       id="path862-3-8" />
    <circle
       transform="matrix(0.96312693,0,0,0.96312693,3.928005,5.0069185)"
       inkscape:export-ydpi="22.459419"
       inkscape:export-xdpi="22.459419"
       r="69.775932"
       cx="106.52775"
       cy="135.78795"
       style="fill:none;fill-opacity:1;stroke:#282016;stroke-width:1;stroke-miterlimit:4;stroke-dasharray:none;stroke-opacity:1;filter:url(#filter4939)"
       id="circle4685" />
    <circle
       id="circle4683"
       style="fill:none;fill-opacity:1;stroke:#8d754e;stroke-width:5.207;stroke-miterlimit:4;stroke-dasharray:none;stroke-opacity:1"
       cy="135.78795"
       cx="106.52775"
       r="69.775932"
       inkscape:export-xdpi="22.459419"
       inkscape:export-ydpi="22.459419" />
  </g>
</svg>
